# xmcd
#
# Track frame offsets:
#   150
#   10165
#   31137
#   48444
#   65682
#   81292
#   91487
#   111793
#   129307
#   153778
#   174791
#   187183
#   207750
#   231365
#   254005
#
# Disc length: 3605 seconds
#
# Revision: 0
# Processed by: cddbd v1.5.2PL0 Copyright (c) Steve Scherf et al.
# Submitted via: GXTranscoder 2.0.1939
#
DISCID=c30e130f
DTITLE=NaS - STILLmatic
DYEAR=1900
DGENRE=Rap
TTITLE0=Stillmatic
TTITLE1=Ether
TTITLE2=Got Yourself A ...
TTITLE3=Smokin'
TTITLE4=You're da Man
TTITLE5=Rewind
TTITLE6=One Mic
TTITLE7=2nd Childhood
TTITLE8=Destroy and Rebuild
TTITLE9=The Flyest
TTITLE10=Braveheart Party
TTITLE11=Rule
TTITLE12=My Country
TTITLE13=What goes Around
TTITLE14=Every Ghetto
EXTD=
EXTT0=
EXTT1=
EXTT2=
EXTT3=
EXTT4=
EXTT5=
EXTT6=
EXTT7=
EXTT8=
EXTT9=
EXTT10=
EXTT11=
EXTT12=
EXTT13=
EXTT14=
PLAYORDER=
